<?xml version="1.0" encoding="utf-8"?>
<svg xmlns="http://www.w3.org/2000/svg" viewBox="0 0 64 64" fill="#4CAF50">
  <path d="M53,33.18A22,22,0,0,0,11.3,24.7a1,1,0,0,0,.18,1.18L15,29.32a1,1,0,0,0,1.37.06,15,15,0,1,1-1.48,21.45,1,1,0,0,0-1.37-.05L10,54.2a1,1,0,0,0,0,1.42A22,22,0,0,0,53,33.18Z"/>
  <path d="M33.12,39.58A3.54,3.54,0,0,0,35,37.45l4.32-13a1,1,0,0,0-.68-1.25l-13-4.32a3.53,3.53,0,1,0-2.24,6.7l10.37,3.45L30.42,38.3a3.54,3.54,0,0,0,2.7,1.28ZM23.25,23.84a1.53,1.53,0,0,1,1-1.92,1.51,1.51,0,0,1,.47-.08,1.55,1.55,0,0,1,.46,3,1.52,1.52,0,0,1-1.91-1Zm10.14,13.7a1.54,1.54,0,0,1-1,1.93,1.44,1.44,0,0,1-.47.07,1.55,1.55,0,0,1-.47-3,1.56,1.56,0,0,1,1.93,1.05Z"/>
  <path d="M27,14h2.55a1,1,0,0,0,1-1V11.41a1,1,0,0,0-1-1H27a1,1,0,0,0-1,1V13A1,1,0,0,0,27,14Z"/>
  <path d="M34.36,14h2.55a1,1,0,0,0,1-1V11.41a1,1,0,0,0-1-1H34.36a1,1,0,0,0-1,1V13A1,1,0,0,0,34.36,14Z"/>
  <path d="M41.77,14h2.55a1,1,0,0,0,1-1V11.41a1,1,0,0,0-1-1H41.77a1,1,0,0,0-1,1V13A1,1,0,0,0,41.77,14Z"/>
  <path d="M49.17,14h2.56a1,1,0,0,0,1-1V11.41a1,1,0,0,0-1-1H49.17a1,1,0,0,0-1,1V13A1,1,0,0,0,49.17,14Z"/>
  <path d="M27,21.36h2.55a1,1,0,0,0,1-1V18.82a1,1,0,0,0-1-1H27a1,1,0,0,0-1,1v2.54A1,1,0,0,0,27,21.36Z"/>
  <path d="M49.17,21.36h2.56a1,1,0,0,0,1-1V18.82a1,1,0,0,0-1-1H49.17a1,1,0,0,0-1,1v2.54A1,1,0,0,0,49.17,21.36Z"/>
  <path d="M27,28.77h2.55a1,1,0,0,0,1-1V25.23a1,1,0,0,0-1-1H27a1,1,0,0,0-1,1v2.54A1,1,0,0,0,27,28.77Z"/>
  <path d="M49.17,28.77h2.56a1,1,0,0,0,1-1V25.23a1,1,0,0,0-1-1H49.17a1,1,0,0,0-1,1v2.54A1,1,0,0,0,49.17,28.77Z"/>
  <path d="M49.17,36.17h2.56a1,1,0,0,0,1-1V32.64a1,1,0,0,0-1-1H49.17a1,1,0,0,0-1,1v2.53A1,1,0,0,0,49.17,36.17Z"/>
  <path d="M42.64,49H40.1a1,1,0,0,0-1,1v2.54a1,1,0,0,0,1,1h2.54a1,1,0,0,0,1-1V50A1,1,0,0,0,42.64,49Z"/>
  <path d="M35.23,49H32.69a1,1,0,0,0-1,1v2.54a1,1,0,0,0,1,1h2.54a1,1,0,0,0,1-1V50A1,1,0,0,0,35.23,49Z"/>
  <path d="M27.83,49H25.29a1,1,0,0,0-1,1v2.54a1,1,0,0,0,1,1h2.54a1,1,0,0,0,1-1V50A1,1,0,0,0,27.83,49Z"/>
  <path d="M20.42,49H17.88a1,1,0,0,0-1,1v2.54a1,1,0,0,0,1,1h2.54a1,1,0,0,0,1-1V50A1,1,0,0,0,20.42,49Z"/>
  <path d="M42.64,41.59H40.1a1,1,0,0,0-1,1v2.54a1,1,0,0,0,1,1h2.54a1,1,0,0,0,1-1V42.59A1,1,0,0,0,42.64,41.59Z"/>
  <path d="M20.42,41.59H17.88a1,1,0,0,0-1,1v2.54a1,1,0,0,0,1,1h2.54a1,1,0,0,0,1-1V42.59A1,1,0,0,0,20.42,41.59Z"/>
  <path d="M20.42,34.18H17.88a1,1,0,0,0-1,1v2.54a1,1,0,0,0,1,1h2.54a1,1,0,0,0,1-1V35.18A1,1,0,0,0,20.42,34.18Z"/>
  <path d="M20.42,26.77H17.88a1,1,0,0,0-1,1v2.54a1,1,0,0,0,1,1h2.54a1,1,0,0,0,1-1V27.77A1,1,0,0,0,20.42,26.77Z"/>
</svg>
