<?xml version="1.0" encoding="utf-8"?>
<svg xmlns="http://www.w3.org/2000/svg" viewBox="0 0 64 64" fill="#4CAF50">
  <path d="M55,24.31a21.8,21.8,0,0,0-8.81-17.58,1,1,0,0,0-1.46.29l-3.16,5.49a1,1,0,0,0,.34,1.38,14.85,14.85,0,0,1,7,12.08,15,15,0,1,1-7.15-12.62,1,1,0,0,0,1.38-.29l3.21-5.54A1,1,0,0,0,46,7.07,22,22,0,1,0,55,24.31Z"/>
  <path d="M34,25H25a1,1,0,0,0-1,1V44a1,1,0,0,0,1,1H34a1,1,0,0,0,1-1V26A1,1,0,0,0,34,25Zm-1,18H26V27h7Z"/>
  <path d="M22,33H13a1,1,0,0,0-1,1V44a1,1,0,0,0,1,1h9a1,1,0,0,0,1-1V34A1,1,0,0,0,22,33Zm-1,10H14V35h7Z"/>
  <path d="M46,17H37a1,1,0,0,0-1,1V44a1,1,0,0,0,1,1h9a1,1,0,0,0,1-1V18A1,1,0,0,0,46,17Zm-1,26H38V19h7Z"/>
</svg>
