<?xml version="1.0" encoding="utf-8"?>
<svg xmlns="http://www.w3.org/2000/svg" viewBox="0 0 64 64" fill="#4CAF50">
  <path d="M47.39,25.49c0-8.19-6-14.49-13.75-14.49a13.26,13.26,0,0,0-11.18,6.4A9.92,9.92,0,0,0,12,26.86a10.38,10.38,0,0,0,10.17,10.55h22.9A7.27,7.27,0,0,0,52,30.17,7.16,7.16,0,0,0,47.39,25.49ZM45.07,35.41H22.17a8.38,8.38,0,0,1-8.17-8.55,7.91,7.91,0,0,1,7.67-8,1,1,0,0,0,1-.76A11.27,11.27,0,0,1,33.64,13c6.71,0,11.75,5.32,11.75,12.49a1,1,0,0,0,.66,1,5.32,5.32,0,0,1,3.95,5.11A5.26,5.26,0,0,1,45.07,35.41Z"/>
  <path d="M54,31.57a1,1,0,0,0-1,1A14.94,14.94,0,0,1,38.12,47a1,1,0,1,0,0,2A16.94,16.94,0,0,0,55,33.57,1,1,0,0,0,54,31.57Z"/>
  <path d="M51.71,22.51a1,1,0,0,0,.35-1.93A14.75,14.75,0,0,0,42,17.15a1,1,0,0,0-.33,2,12.78,12.78,0,0,1,8.7,2.95A1,1,0,0,0,51.71,22.51Z"/>
  <path d="M37.12,51a1,1,0,0,0-1,1,7.3,7.3,0,0,1-7.13,7c-.12,0-.25,0-.37,0a1,1,0,0,0-1.15.83,1,1,0,0,0,.83,1.15l.38,0a9.31,9.31,0,0,0,9.44-8.93A1,1,0,0,0,37.12,51Z"/>
  <path d="M21.45,39.44a1,1,0,0,0-1,1,17.36,17.36,0,0,0,.73,4.93,1,1,0,0,0,1,.71,1.11,1.11,0,0,0,.29,0,1,1,0,0,0,.67-1.25,15.68,15.68,0,0,1-.65-4.41A1,1,0,0,0,21.45,39.44Z"/>
  <path d="M26,50.84a1,1,0,0,0-1.37.35A9.32,9.32,0,0,1,23,53.34a1,1,0,0,0,.44,1.9,1,1,0,0,0,.44-.1A11,11,0,0,0,26.35,52.2,1,1,0,0,0,26,50.84Z"/>
  <path d="M32.24,43a5.26,5.26,0,0,0-5.62,5.32,5.44,5.44,0,0,0,3.18,5,1,1,0,0,0,1.36-.46,1,1,0,0,0-.46-1.35,3.45,3.45,0,0,1-2.08-3.15A3.26,3.26,0,0,1,32.24,45a3.43,3.43,0,0,1,3.44,3.44A3.32,3.32,0,0,1,33.32,52a1,1,0,1,0,.07,2h.07a5.31,5.31,0,0,0,5.22-5.54A5.44,5.44,0,0,0,32.24,43Z"/>
</svg>
